<?xml version="1.0" standalone="no"?>
<!DOCTYPE svg PUBLIC "-//W3C//DTD SVG 20010904//EN"
 "http://www.w3.org/TR/2001/REC-SVG-20010904/DTD/svg10.dtd">
<svg version="1.0" xmlns="http://www.w3.org/2000/svg"
 width="512.000000pt" height="512.000000pt" viewBox="0 0 512.000000 512.000000"
 preserveAspectRatio="xMidYMid meet">
<metadata>
Created by potrace 1.11, written by Peter Selinger 2001-2013
</metadata>
<g transform="translate(0.000000,512.000000) scale(0.100000,-0.100000)"
fill="#000000" stroke="none">
<path d="M2557 4990 c4 -4 72 -31 151 -60 78 -29 142 -55 142 -59 0 -3 -62
-30 -138 -60 -75 -30 -140 -57 -144 -60 -4 -4 12 -7 35 -7 79 -2 242 -15 287
-24 25 -5 63 -12 84 -15 22 -3 76 -15 120 -26 754 -192 1351 -766 1567 -1508
97 -332 115 -700 49 -1031 -112 -571 -452 -1082 -932 -1400 -236 -157 -452
-249 -728 -314 -179 -41 -271 -51 -490 -51 -202 0 -268 6 -438 41 -654 132
-1222 571 -1520 1175 -51 103 -140 341 -158 419 -2 11 -6 30 -9 42 -12 52 -44
247 -50 303 -7 65 -8 364 -1 405 2 14 7 48 11 75 13 100 17 121 31 185 9 36
18 75 20 88 3 13 22 76 43 141 177 539 586 1010 1092 1259 68 34 140 68 160
76 99 42 331 109 424 122 49 7 427 157 417 165 -4 3 -68 30 -143 58 -138 52
-168 57 -249 36 -8 -2 -35 -7 -60 -10 -126 -18 -343 -81 -500 -147 -547 -227
-990 -643 -1254 -1180 -41 -84 -91 -200 -111 -258 -40 -115 -100 -349 -109
-426 -4 -27 -9 -65 -11 -84 -15 -114 -17 -161 -17 -310 0 -91 3 -183 6 -205 3
-22 8 -64 11 -94 4 -30 9 -63 11 -75 2 -11 6 -38 10 -61 3 -22 21 -98 39 -170
207 -807 824 -1458 1625 -1713 259 -82 472 -111 780 -107 113 2 214 5 225 8
11 2 47 8 80 12 164 19 417 90 605 170 658 278 1175 858 1380 1548 34 112 77
326 88 431 9 92 9 431 0 521 -94 887 -675 1660 -1505 1999 -106 44 -315 109
-386 121 -18 3 -48 10 -67 15 -19 4 -60 12 -90 15 -30 4 -64 9 -74 11 -22 4
-151 14 -249 18 -38 2 -65 0 -60 -4z"/>
<path d="M2216 4293 c11 -25 13 -467 3 -583 -10 -121 -19 -213 -24 -242 -2
-13 -6 -44 -9 -69 -10 -66 -15 -98 -26 -149 -5 -25 -12 -58 -14 -73 -3 -16
-21 -86 -40 -155 -170 -610 -510 -1016 -1109 -1325 l-88 -45 48 -52 c119 -131
187 -227 257 -365 l43 -84 80 48 c236 142 414 281 598 466 215 216 325 366
440 600 60 123 134 305 157 388 10 35 28 51 28 25 0 -24 112 -290 168 -400
166 -325 443 -648 767 -894 91 -69 344 -238 349 -233 1 2 23 45 48 94 80 159
155 274 254 390 l43 50 -97 49 c-519 263 -938 729 -1128 1256 -98 273 -154
675 -149 1065 1 105 6 205 10 223 l8 32 -313 0 c-294 0 -312 -1 -304 -17z"/>
</g>
</svg>
